<?xml version="1.0" standalone="no"?>
<!DOCTYPE svg PUBLIC "-//W3C//DTD SVG 20010904//EN"
 "http://www.w3.org/TR/2001/REC-SVG-20010904/DTD/svg10.dtd">
<svg version="1.0" xmlns="http://www.w3.org/2000/svg"
 width="642.000000pt" height="642.000000pt" viewBox="0 0 642.000000 642.000000"
 preserveAspectRatio="xMidYMid meet">
<metadata>
Created by potrace 1.11, written by Peter Selinger 2001-2013
</metadata>
<g transform="translate(0.000000,642.000000) scale(0.100000,-0.100000)"
fill="#000000" stroke="none">
<path d="M3954 5436 c-43 -10 -154 -60 -214 -94 -8 -5 -24 -14 -35 -20 -11 -7
-27 -15 -35 -19 -8 -4 -21 -15 -28 -25 -7 -10 -26 -18 -42 -18 -27 0 -62 -30
-73 -63 -2 -8 -23 -5 -72 9 -50 15 -93 20 -164 19 -146 -2 -181 -30 -147 -115
9 -22 16 -54 16 -71 0 -28 -3 -31 -22 -24 -13 3 -34 9 -48 12 -24 6 -78 49
-195 155 -60 56 -141 101 -166 95 -10 -3 -20 0 -21 5 -2 6 -51 26 -108 44 -57
19 -115 42 -128 50 -15 10 -56 18 -105 21 -45 2 -110 10 -144 17 -67 13 -357
15 -430 2 -27 -5 -58 -21 -85 -45 -24 -20 -55 -45 -70 -54 -16 -10 -28 -23
-28 -30 0 -30 -93 -93 -287 -194 -59 -31 -119 -64 -133 -75 -14 -10 -54 -38
-90 -63 -136 -92 -158 -109 -175 -139 -10 -17 -33 -49 -51 -71 -49 -62 -66
-102 -76 -183 -5 -41 -15 -87 -23 -102 -15 -29 -164 -190 -288 -313 -81 -79
-123 -131 -156 -192 -27 -50 -91 -151 -153 -244 -27 -39 -48 -78 -48 -87 0
-18 -30 -64 -67 -105 -45 -49 -44 -74 7 -176 26 -51 64 -112 84 -137 20 -24
36 -49 36 -54 0 -6 20 -28 45 -50 25 -22 45 -45 45 -51 0 -6 31 -41 68 -79 38
-37 86 -88 107 -115 20 -26 43 -47 50 -47 7 0 16 -11 19 -25 4 -14 10 -25 15
-25 5 0 24 -16 42 -35 19 -19 41 -35 51 -35 10 0 18 -7 18 -17 0 -10 11 -26
25 -38 14 -11 27 -31 28 -44 1 -23 80 -110 128 -140 14 -9 41 -34 61 -56 47
-53 96 -82 104 -62 5 14 -44 97 -58 97 -4 0 -8 6 -8 14 0 7 -10 28 -22 47 -13
19 -28 50 -35 69 -18 54 -35 159 -28 180 7 24 9 260 1 267 -3 3 2 19 10 36 11
20 14 43 10 71 -11 70 -10 157 2 256 7 52 14 112 17 133 5 45 61 153 113 217
67 83 152 170 154 157 3 -27 7 -95 7 -132 0 -102 -2 -122 -16 -144 -9 -14 -18
-47 -20 -74 -2 -27 -8 -58 -14 -68 -5 -11 -7 -24 -4 -29 3 -5 1 -11 -4 -15 -7
-4 -7 -15 0 -32 5 -15 9 -56 8 -93 -1 -36 1 -75 6 -87 6 -18 4 -23 -10 -23
-11 0 -15 -5 -12 -15 4 -8 2 -17 -3 -20 -6 -3 -9 -32 -9 -63 1 -44 6 -61 20
-72 16 -13 18 -21 10 -45 -15 -47 -19 -126 -7 -136 6 -5 20 -16 31 -24 15 -11
17 -17 8 -23 -10 -6 -10 -23 2 -79 8 -39 12 -79 9 -87 -5 -12 -2 -15 11 -10
14 6 16 3 11 -14 -5 -14 -1 -25 14 -35 18 -13 20 -18 9 -34 -10 -17 -9 -23 10
-42 11 -11 21 -28 21 -37 0 -23 59 -214 76 -246 8 -14 14 -33 14 -42 0 -8 11
-23 25 -32 19 -12 23 -20 15 -29 -12 -15 51 -143 66 -135 5 3 8 8 7 13 -2 4 3
7 11 7 18 0 90 -84 116 -134 17 -34 17 -38 2 -43 -9 -4 -18 -1 -20 6 -2 6 -15
25 -28 40 -13 16 -24 32 -24 35 0 4 -9 16 -20 28 -30 33 -26 0 5 -36 14 -16
25 -38 25 -48 0 -21 155 -187 195 -208 15 -8 52 -40 83 -72 32 -32 61 -58 65
-58 5 0 36 -20 70 -44 34 -24 80 -51 102 -61 71 -30 99 -44 152 -74 29 -17 72
-35 95 -41 24 -7 52 -17 63 -24 20 -13 61 -26 79 -25 5 1 13 -6 18 -15 6 -11
17 -14 31 -11 16 4 30 -1 47 -19 l23 -26 -31 0 c-63 0 -44 -35 24 -45 68 -11
154 -35 192 -55 20 -11 71 -24 112 -30 41 -6 98 -17 127 -25 56 -16 107 -15
125 3 16 16 28 15 28 -2 0 -23 22 -31 32 -12 13 22 51 20 73 -4 l19 -21 13 26
c8 14 21 25 31 25 13 0 14 -2 4 -8 -16 -11 -5 -39 20 -53 18 -9 19 -8 13 10
-6 19 -3 21 18 17 17 -3 31 2 43 15 23 26 34 24 34 -5 0 -37 18 -41 48 -13
l27 25 35 -24 c31 -22 44 -24 146 -24 81 0 114 -4 117 -12 3 -10 9 -9 23 3 20
17 117 21 142 5 9 -5 15 -2 18 12 7 25 70 44 119 36 27 -4 42 -1 55 11 21 19
40 13 40 -13 0 -12 3 -14 8 -4 5 7 42 14 98 17 49 2 114 9 144 15 30 6 87 13
125 16 104 8 165 28 202 68 18 19 54 44 80 57 27 12 67 39 89 60 23 20 57 45
75 54 44 22 102 65 197 143 42 35 92 70 111 79 18 8 42 23 54 34 11 10 27 19
34 19 8 0 23 9 35 20 12 11 38 28 57 39 20 10 56 37 80 59 25 23 48 39 52 36
12 -7 58 44 65 71 7 30 21 33 26 5 5 -33 23 -26 29 11 5 33 25 63 79 118 27
28 48 56 82 109 22 36 12 35 130 16 15 -2 39 -9 55 -15 40 -15 120 -22 127
-11 3 5 -1 15 -9 22 -8 7 -15 19 -15 27 0 8 -19 53 -41 101 -49 103 -59 168
-34 227 9 22 19 63 22 90 3 28 10 53 16 56 5 4 11 21 12 39 2 18 12 45 24 61
12 15 21 37 21 47 0 11 11 40 25 65 14 27 20 49 15 52 -12 8 -13 45 -1 45 5 0
12 17 16 38 10 44 9 42 36 117 16 45 20 76 17 125 -3 38 1 84 9 110 9 29 13
92 12 180 -1 173 -2 160 6 195 12 57 -5 458 -24 539 -6 26 -8 59 -5 72 4 13
-1 32 -10 46 -9 12 -16 35 -16 51 0 19 -12 40 -36 65 -54 55 -104 118 -104
130 0 6 -11 19 -24 29 -13 10 -36 45 -51 76 -16 32 -43 75 -62 96 -18 22 -33
43 -33 48 0 4 -27 35 -60 67 -33 33 -60 63 -60 67 0 5 -39 38 -87 73 -49 36
-110 88 -138 115 -42 41 -181 121 -211 121 -4 0 -15 7 -25 16 -11 10 -42 16
-90 19 -41 2 -82 6 -91 10 -9 4 -26 2 -37 -5 -13 -7 -45 -8 -88 -4 -95 10 -92
9 -105 22 -7 7 -20 12 -29 12 -9 0 -37 11 -62 25 -43 25 -139 57 -218 74 -20
4 -49 17 -65 28 -45 32 -58 33 -285 38 -118 3 -236 7 -264 10 -27 2 -73 -1
-101 -9z"/>
<path d="M55 3570 c-3 -5 -2 -10 4 -10 5 0 13 5 16 10 3 6 2 10 -4 10 -5 0
-13 -4 -16 -10z"/>
</g>
</svg>
